{
  "asset": {
    "extras": {
      "author": "Alihan (https://sketchfab.com/Dare0)",
      "license": "CC-BY-4.0 (http://creativecommons.org/licenses/by/4.0/)",
      "source": "https://sketchfab.com/3d-models/direction-arrow-6ef46718c7b242e39fcad7f27ee858a5",
      "title": "Direction Arrow"
    },
    "generator": "gltfeditor.com",
    "version": "2.0"
  },
  "buffers": [
    {
      "uri": "data:application/octet-stream;base64,",
      "byteLength": 19392
    }
  ],
  "bufferViews": [
    {
      "buffer": 0,
      "byteOffset": 0,
      "byteLength": 8496,
      "byteStride": 24,
      "target": 34962
    },
    {
      "buffer": 0,
      "byteOffset": 8496,
      "byteLength": 2832,
      "byteStride": 8,
      "target": 34962
    },
    {
      "buffer": 0,
      "byteOffset": 11328,
      "byteLength": 8064,
      "target": 34963
    }
  ],
  "accessors": [
    {
      "bufferView": 0,
      "byteOffset": 0,
      "componentType": 5126,
      "normalized": false,
      "count": 354,
      "min": [
        -0.9950500130653381,
        -0.9905694127082825,
        -0.9999966621398926
      ],
      "max": [
        0.9091233015060425,
        0.9905693531036377,
        0.9974821209907532
      ],
      "type": "VEC3"
    },
    {
      "bufferView": 0,
      "byteOffset": 12,
      "componentType": 5126,
      "normalized": false,
      "count": 354,
      "min": [
        -1.2560596466064453,
        -1.0552071332931519,
        -0.11744827032089233
      ],
      "max": [
        1.7524282932281494,
        1.0534647703170776,
        0.11685825884342194
      ],
      "type": "VEC3"
    },
    {
      "bufferView": 1,
      "byteOffset": 0,
      "componentType": 5126,
      "normalized": false,
      "count": 354,
      "min": [
        0,
        0.5
      ],
      "max": [
        1.0000001192092896,
        1.0000001192092896
      ],
      "type": "VEC2"
    },
    {
      "bufferView": 2,
      "byteOffset": 0,
      "componentType": 5125,
      "normalized": false,
      "count": 2016,
      "min": [
        0
      ],
      "max": [
        353
      ],
      "type": "SCALAR"
    }
  ],
  "scene": 0,
  "scenes": [
    {
      "nodes": [
        4
      ],
      "name": "Sketchfab_Scene"
    }
  ],
  "nodes": [
    {
      "name": "Arrow_Material.001_0",
      "matrix": [
        -1,
        1.2246468525851679e-16,
        1.4892410811217311e-31,
        0,
        -1.2246468525851679e-16,
        -1,
        4.074150242243532e-24,
        0,
        1.4892410811217311e-31,
        4.074150242243532e-24,
        1,
        0,
        0,
        0,
        0,
        1
      ],
      "mesh": 0
    },
    {
      "name": "Arrow",
      "children": [
        0
      ],
      "matrix": [
        100,
        0,
        0,
        0,
        0,
        -0.000013435885193757713,
        -100,
        0,
        0,
        100,
        -0.000013435885193757713,
        0,
        11.482990264892578,
        8.66330623626709,
        11.398099899291992,
        1
      ]
    },
    {
      "name": "RootNode",
      "children": [
        1
      ]
    },
    {
      "name": "54b2761560d74cf7a540d3659ba46cd1.fbx",
      "children": [
        2
      ],
      "matrix": [
        0.009999999776482582,
        0,
        0,
        0,
        0,
        3.42285422227917e-10,
        0.009999999776482582,
        0,
        0,
        -0.009999999776482582,
        3.42285422227917e-10,
        0,
        0,
        0,
        0,
        1
      ]
    },
    {
      "name": "Sketchfab_model",
      "children": [
        3
      ],
      "matrix": [
        0.9998863339424133,
        0,
        0.01507742889225483,
        0,
        0.01507742889225483,
        1.1927610010786793e-8,
        -0.9998863339424133,
        0,
        0,
        1,
        1.1927610010786793e-8,
        0,
        0,
        0,
        0,
        1
      ]
    }
  ],
  "meshes": [
    {
      "primitives": [
        {
          "material": 0,
          "mode": 4,
          "attributes": {
            "NORMAL": 0,
            "POSITION": 1,
            "TEXCOORD_0": 2
          },
          "indices": 3
        }
      ]
    }
  ],
  "materials": [
    {
      "pbrMetallicRoughness": {
        "baseColorFactor": [
          0.07058823529411765,
          0.32941176470588235,
          0.9294117647058824,
          1
        ],
        "metallicFactor": 0,
        "roughnessFactor": 0.8878588312587499
      },
      "emissiveFactor": [
        0,
        0,
        0
      ],
      "alphaMode": "OPAQUE",
      "doubleSided": true
    }
  ]
}